<svg height="464pt" viewBox="-9 0 464 464" width="464pt" xmlns="http://www.w3.org/2000/svg"><path d="m233.503906 127.199219c-8.398437 6.992187-18.871094 15.722656-18.871094 32.800781h16c0-9.144531 4.742188-13.542969 13.128907-20.527344 8.382812-6.984375 18.871093-15.738281 18.871093-32.816406 0-17.082031-10.472656-25.808594-18.871093-32.800781-8.402344-6.992188-13.128907-11.398438-13.128907-20.542969s4.742188-13.527344 13.121094-20.503906c8.375-6.976563 18.878906-15.730469 18.878906-32.808594h-16c0 9.136719-4.746093 13.527344-13.121093 20.503906-8.375 6.976563-18.878907 15.726563-18.878907 32.808594 0 17.078125 10.472657 25.800781 18.871094 32.800781 8.398438 7 13.128906 11.390625 13.128906 20.542969s-4.746093 13.542969-13.128906 20.542969zm0 0"/><path d="m169.503906 127.199219c-8.398437 6.992187-18.871094 15.722656-18.871094 32.800781h16c0-9.144531 4.742188-13.542969 13.128907-20.527344 8.382812-6.984375 18.871093-15.738281 18.871093-32.816406 0-17.082031-10.472656-25.808594-18.871093-32.800781-8.402344-6.992188-13.128907-11.398438-13.128907-20.542969s4.742188-13.527344 13.121094-20.503906c8.375-6.976563 18.878906-15.730469 18.878906-32.808594h-16c0 9.136719-4.746093 13.527344-13.121093 20.503906-8.375 6.976563-18.878907 15.726563-18.878907 32.808594 0 17.078125 10.472657 25.800781 18.871094 32.800781 8.398438 7 13.128906 11.390625 13.128906 20.542969s-4.746093 13.542969-13.128906 20.542969zm0 0"/><path d="m446.632812 256v32c-.039062 13.238281-10.761718 23.960938-24 24h-64v-16h56c8.824219-.027344 15.972657-7.175781 16-16v-16c-.027343-8.824219-7.175781-15.972656-16-16h-56v-16h64c13.238282.039062 23.960938 10.761719 24 24zm0 0"/><path d="m0 448c3.402344 9.582031 12.464844 15.988281 22.632812 16h352c10.167969-.011719 19.226563-6.417969 22.632813-16zm0 0"/><path d="m102.632812 227.28125-16 16v52.71875h32v-52.71875zm8 36.71875h-16v-16h16zm0 0"/><path d="m222.632812 432c63.328126-.082031 115.726563-49.296875 119.773438-112.496094.152344-2.480468.226562-119.503906.226562-119.503906 0-4.417969-3.582031-8-8-8h-224v20.6875l21.65625 21.65625c1.5 1.5 2.34375 3.535156 2.34375 5.65625v64c0 4.417969-3.582031 8-8 8h-48c-4.417968 0-8-3.582031-8-8v-64c0-2.121094.84375-4.15625 2.34375-5.65625l21.65625-21.65625v-20.6875h-32c-4.417968 0-8 3.582031-8 8v112c.074219 66.242188 53.757813 119.925781 120 120zm0 0"/></svg>