<svg xmlns="http://www.w3.org/2000/svg" viewBox="0 0 133.18 34.75"><defs><style>.cls-1{fill:#575e60;}.cls-2{fill:#0275d8;}</style></defs><g id="Layer_2" data-name="Layer 2"><g id="Layer_1-2" data-name="Layer 1"><path class="cls-1" d="M41.19,15.38H43.3v1.47h0a2.84,2.84,0,0,1,2.56-1.73,2.26,2.26,0,0,1,.53.06v2a2.65,2.65,0,0,0-.68-.09,2.3,2.3,0,0,0-2.36,2.36v4.71h-2.2Z"/><path class="cls-1" d="M55.9,20.47H49.22a2.43,2.43,0,0,0,2.5,2.16,2.67,2.67,0,0,0,2.33-1.13l1.47,1.17a4.4,4.4,0,0,1-3.78,1.76A4.41,4.41,0,0,1,47,19.83a4.48,4.48,0,0,1,4.65-4.71c2.45,0,4.25,1.6,4.25,4.77A5.62,5.62,0,0,1,55.9,20.47ZM53.72,18.9a2,2,0,0,0-2.07-2.13,2.34,2.34,0,0,0-2.43,2.13Z"/><path class="cls-1" d="M71.78,18.68v5.49h-2.2V19.3c0-1-.24-2.34-1.65-2.34S66,18.24,66,19.37v4.8h-2.2V18.86c0-1.08-.51-1.9-1.63-1.9-1.32,0-1.92,1.2-1.92,2.38v4.83H58V15.38h2.09v1.41h0a3.07,3.07,0,0,1,5.47,0,3.15,3.15,0,0,1,2.9-1.67C70.83,15.12,71.78,16.88,71.78,18.68Z"/><path class="cls-1" d="M78.61,15.12a4.56,4.56,0,0,1,4.78,4.62,4.78,4.78,0,0,1-9.56,0A4.56,4.56,0,0,1,78.61,15.12Zm0,7.48a2.62,2.62,0,0,0,2.54-2.86,2.56,2.56,0,1,0-5.09,0A2.63,2.63,0,0,0,78.61,22.6Z"/><path class="cls-1" d="M84.25,17.14V15.38h1.54V12.84H88v2.54h2.2v1.76H88v4.08c0,.79.18,1.36,1.15,1.36a2.29,2.29,0,0,0,.94-.19l.07,1.73a4.71,4.71,0,0,1-1.46.23c-2.33,0-2.86-1.42-2.86-3.11v-4.1Z"/><path class="cls-1" d="M100.11,20.47H93.43a2.43,2.43,0,0,0,2.5,2.16,2.67,2.67,0,0,0,2.33-1.13l1.47,1.17a4.79,4.79,0,0,1-8.5-2.84,4.48,4.48,0,0,1,4.65-4.71c2.45,0,4.25,1.6,4.25,4.77A5.62,5.62,0,0,1,100.11,20.47ZM97.93,18.9a2,2,0,0,0-2.07-2.13,2.34,2.34,0,0,0-2.43,2.13Z"/><path class="cls-1" d="M103.86,19.46h.06l4-3.86h1.8l-4.32,3.92,4.76,4.65h-1.83l-4.36-4.5h-.06v4.5h-1.24V10.33h1.24Z"/><path class="cls-1" d="M112.56,13.18a.88.88,0,1,1,.88-.88A.89.89,0,0,1,112.56,13.18Zm.63,11h-1.25V15.6h1.25Z"/><path class="cls-1" d="M122.67,17.56a2.6,2.6,0,0,0-2.2-1.14,3.24,3.24,0,0,0-3.27,3.47,3.21,3.21,0,0,0,3.26,3.44,2.75,2.75,0,0,0,2.32-1.12l.94.7a4,4,0,0,1-3.26,1.48,4.34,4.34,0,0,1-4.58-4.5,4.34,4.34,0,0,1,4.58-4.51,4,4,0,0,1,3.18,1.48Z"/><path class="cls-1" d="M126.94,19.46h0l4-3.86h1.8l-4.33,3.92,4.76,4.65h-1.83L127,19.67h0v4.5h-1.25V10.33h1.25Z"/><path class="cls-2" d="M8.52,0A8.53,8.53,0,0,0,0,8.52V34.75s.22-4.55,1-10c.28-2,.64-4.07,1.09-6.11,1-4.62,2.49-9,4.61-11.12A14.44,14.44,0,0,1,17.45,3.27,14.1,14.1,0,0,1,21.7,4a14.51,14.51,0,0,1,5.55,24C21.58,33.71,0,34.75,0,34.75H26.23a8.51,8.51,0,0,0,8.52-8.52V0Z"/><circle class="cls-2" cx="17.03" cy="17.73" r="6.88"/></g></g></svg>