<svg xmlns="http://www.w3.org/2000/svg" viewBox="0 0 133.04 34.75"><defs><style>.cls-1{fill:#fff;}</style></defs><g id="Layer_2" data-name="Layer 2"><g id="Layer_1-2" data-name="Layer 1"><path class="cls-1" d="M41.05,15.38h2.1v1.47h0a2.85,2.85,0,0,1,2.56-1.73,2.2,2.2,0,0,1,.53.06v2a2.63,2.63,0,0,0-.67-.09,2.3,2.3,0,0,0-2.37,2.36v4.71H41.05Z"/><path class="cls-1" d="M55.75,20.47H49.07a2.44,2.44,0,0,0,2.51,2.16A2.66,2.66,0,0,0,53.9,21.5l1.47,1.17a4.38,4.38,0,0,1-3.77,1.76,4.42,4.42,0,0,1-4.73-4.6,4.49,4.49,0,0,1,4.65-4.71c2.46,0,4.25,1.6,4.25,4.77A5.62,5.62,0,0,1,55.75,20.47ZM53.57,18.9a2,2,0,0,0-2.07-2.13,2.34,2.34,0,0,0-2.43,2.13Z"/><path class="cls-1" d="M71.63,18.68v5.49h-2.2V19.3c0-1-.23-2.34-1.64-2.34s-2,1.28-2,2.41v4.8H63.65V18.86c0-1.08-.52-1.9-1.63-1.9-1.32,0-1.93,1.2-1.93,2.38v4.83H57.9V15.38H60v1.41h0a3.08,3.08,0,0,1,5.48,0,3.12,3.12,0,0,1,2.89-1.67C70.68,15.12,71.63,16.88,71.63,18.68Z"/><path class="cls-1" d="M78.46,15.12a4.56,4.56,0,0,1,4.78,4.62,4.78,4.78,0,0,1-9.56,0A4.56,4.56,0,0,1,78.46,15.12Zm0,7.48A2.63,2.63,0,0,0,81,19.74a2.56,2.56,0,1,0-5.09,0A2.62,2.62,0,0,0,78.46,22.6Z"/><path class="cls-1" d="M84.1,17.14V15.38h1.54V12.84H87.8v2.54H90v1.76H87.8v4.08c0,.79.19,1.36,1.16,1.36a2.28,2.28,0,0,0,.93-.19L90,24.12a4.71,4.71,0,0,1-1.46.23c-2.33,0-2.86-1.42-2.86-3.11v-4.1Z"/><path class="cls-1" d="M100,20.47H93.28a2.44,2.44,0,0,0,2.51,2.16,2.66,2.66,0,0,0,2.32-1.13l1.47,1.17a4.79,4.79,0,0,1-8.5-2.84,4.49,4.49,0,0,1,4.65-4.71c2.46,0,4.25,1.6,4.25,4.77A5.62,5.62,0,0,1,100,20.47ZM97.78,18.9a2,2,0,0,0-2.07-2.13,2.34,2.34,0,0,0-2.43,2.13Z"/><path class="cls-1" d="M103.72,19.46h0l4-3.86h1.79l-4.32,3.92L110,24.17h-1.83l-4.36-4.5h0v4.5h-1.25V10.33h1.25Z"/><path class="cls-1" d="M112.42,13.18a.88.88,0,1,1,.88-.88A.89.89,0,0,1,112.42,13.18Zm.62,11h-1.25V15.6H113Z"/><path class="cls-1" d="M122.53,17.56a2.63,2.63,0,0,0-2.2-1.14,3.24,3.24,0,0,0-3.28,3.47,3.21,3.21,0,0,0,3.26,3.44,2.78,2.78,0,0,0,2.33-1.12l.93.7a4,4,0,0,1-3.26,1.48,4.34,4.34,0,0,1-4.58-4.5,4.34,4.34,0,0,1,4.58-4.51,4.08,4.08,0,0,1,3.19,1.48Z"/><path class="cls-1" d="M126.79,19.46h.06l4-3.86h1.8l-4.32,3.92L133,24.17h-1.83l-4.36-4.5h-.06v4.5h-1.24V10.33h1.24Z"/><path class="cls-1" d="M8.52,0A8.53,8.53,0,0,0,0,8.52V34.75s.22-4.55,1-10c.28-2,.64-4.07,1.09-6.11,1-4.62,2.49-9,4.61-11.12A14.44,14.44,0,0,1,17.45,3.27,14.1,14.1,0,0,1,21.7,4a14.51,14.51,0,0,1,5.55,24C21.58,33.71,0,34.75,0,34.75H26.23a8.51,8.51,0,0,0,8.52-8.52V0Z"/><circle class="cls-1" cx="17.03" cy="17.73" r="6.88"/></g></g></svg>